<svg id="Layer_1" data-name="Layer 1" xmlns="http://www.w3.org/2000/svg" viewBox="0 0 159 50"><defs><style>.cls-1{fill:#515151;}.cls-2{fill:#ff5b00;}.cls-3{fill:#ff9d00;}.cls-4{fill:#ffd400;}.cls-5{fill:#b3ed00;}.cls-6{fill:#0feaac;}.cls-7{fill:#1ce3e8;}</style></defs><title>lp-logo</title><path class="cls-1" d="M15,35.7H3.67V12.36a.76.76,0,0,0-.81-.81h-.7a.73.73,0,0,0-.77.81V36.91a.73.73,0,0,0,.77.81H15a.73.73,0,0,0,.77-.81v-.41A.73.73,0,0,0,15,35.7Z"/><path class="cls-1" d="M19.54,19h-.66a.75.75,0,0,0-.77.81V36.91a.73.73,0,0,0,.77.81h.66a.76.76,0,0,0,.81-.81V19.85A.74.74,0,0,0,19.54,19Z"/><path class="cls-1" d="M19.17,11.08a1.62,1.62,0,0,0-1.62,1.73,1.64,1.64,0,1,0,3.27,0A1.64,1.64,0,0,0,19.17,11.08Z"/><path class="cls-1" d="M33.88,19H29v-1.7c0-3.19,1.29-5,3.54-5,1.85,0,3.1,1,3.1,2.55a3.1,3.1,0,0,1,0,.49.53.53,0,0,0,.11.44.56.56,0,0,0,.43.17h.92a.54.54,0,0,0,.54-.34,2.42,2.42,0,0,0,.12-.76c0-2.77-2.05-4.57-5.23-4.57-2.15,0-5.75.94-5.75,7.26V19H24.18a.55.55,0,0,0-.59.59v.74a.55.55,0,0,0,.59.59h2.62v16a.73.73,0,0,0,.77.81h.7a.73.73,0,0,0,.77-.81v-16h4.83a.55.55,0,0,0,.59-.59v-.74A.55.55,0,0,0,33.88,19Z"/><path class="cls-1" d="M44.42,18.63a9.79,9.79,0,0,0-10,9.8c0,5.62,4.37,9.69,10.39,9.69A10.42,10.42,0,0,0,52,35.57a.79.79,0,0,0,.13-1.21l-.26-.29a.74.74,0,0,0-1.1-.09,9,9,0,0,1-5.93,2.13,8.41,8.41,0,0,1-6.34-2.61,7.14,7.14,0,0,1-1.82-5.4H52.82a.79.79,0,0,0,.6-.23.74.74,0,0,0,.17-.59C53.11,20.91,48.54,18.63,44.42,18.63Zm6.86,7.63H36.95a7.59,7.59,0,0,1,7.5-5.61A6.47,6.47,0,0,1,51.28,26.26Z"/><path class="cls-1" d="M66.4,11.56H57.18a.73.73,0,0,0-.77.81V36.91a.73.73,0,0,0,.77.81h.7a.74.74,0,0,0,.81-.81V27.29H66.4c4.45,0,7.55-3.21,7.55-7.81a8.3,8.3,0,0,0-2-5.54A7.21,7.21,0,0,0,66.4,11.56Zm5.2,7.92c0,3.43-2.24,5.83-5.46,5.83H58.69V13.58h7.45C69.35,13.58,71.6,16,71.6,19.48Z"/><path class="cls-1" d="M103.64,11.08A1.62,1.62,0,0,0,102,12.81a1.64,1.64,0,1,0,3.27,0A1.64,1.64,0,0,0,103.64,11.08Z"/><path class="cls-1" d="M104,19h-.66a.75.75,0,0,0-.77.81V36.91a.73.73,0,0,0,.77.81H104a.76.76,0,0,0,.81-.81V19.85A.74.74,0,0,0,104,19Z"/><path class="cls-1" d="M117.9,18.63a7.31,7.31,0,0,0-6.49,3.9V19.85a.74.74,0,0,0-.81-.81H110a.76.76,0,0,0-.81.81V36.91a.74.74,0,0,0,.81.81h.63a.74.74,0,0,0,.81-.81V28.18c.11-5.92,4.24-7.49,6.42-7.49s5.61.82,5.61,6.34v9.88a.73.73,0,0,0,.77.81h.66a.76.76,0,0,0,.81-.81V27C125.67,21.7,122.84,18.63,117.9,18.63Z"/><path class="cls-1" d="M139.6,32.09h-.85a.53.53,0,0,0-.44.18.55.55,0,0,0-.06.49,2.89,2.89,0,0,1,.07.62,2.7,2.7,0,0,1-2.92,2.73c-2.09,0-3.1-1.34-3.1-4.09V20.95h5.46a.53.53,0,0,0,.59-.59v-.74a.53.53,0,0,0-.59-.59H132.3V13.91a.66.66,0,0,0-.73-.7h-.33a.72.72,0,0,0-.73.68L130.11,19h-2.67a.55.55,0,0,0-.59.59v.74a.55.55,0,0,0,.59.59h2.66v11c0,4.13,1.77,6.23,5.27,6.23,3,0,5-1.84,5-4.57a5.22,5.22,0,0,0-.11-1A.63.63,0,0,0,139.6,32.09Z"/><path class="cls-1" d="M149.87,27.78l-2.8-.88c-1.87-.58-2.82-1.58-2.82-3a3.43,3.43,0,0,1,3.69-3.25,3.64,3.64,0,0,1,3.16,1.79.79.79,0,0,0,1,.41l.47-.15a.8.8,0,0,0,.55-.4.73.73,0,0,0,0-.63,5.65,5.65,0,0,0-5.17-3,5.92,5.92,0,0,0-4.3,1.65,5.21,5.21,0,0,0-1.52,3.66c0,2.35,1.46,4,4.33,4.85l2.76.88c1.85.62,2.79,1.66,2.79,3.11,0,1.91-1.74,3.36-4.06,3.36a4.92,4.92,0,0,1-4.35-2.21.83.83,0,0,0-1-.39l-.55.18a.78.78,0,0,0-.52.4.73.73,0,0,0,0,.62h0a7,7,0,0,0,6.32,3.38c4.11,0,6.26-2.69,6.26-5.34C154.12,31.1,153.38,28.86,149.87,27.78Z"/><circle class="cls-2" cx="87.57" cy="15.81" r="1.27"/><circle class="cls-3" cx="87.57" cy="18.69" r="1.02"/><circle class="cls-4" cx="87.57" cy="21.16" r="0.81"/><circle class="cls-5" cx="87.57" cy="23.26" r="0.59"/><circle class="cls-6" cx="87.57" cy="25" r="0.35"/><circle class="cls-7" cx="87.57" cy="26.32" r="0.15"/><circle class="cls-2" cx="83.59" cy="16.51" r="1.27" transform="translate(-0.6 29.59) rotate(-20)"/><circle class="cls-3" cx="84.58" cy="19.22" r="1.02" transform="translate(-1.47 30.09) rotate(-20)"/><circle class="cls-4" cx="85.43" cy="21.54" r="0.81" transform="translate(-2.22 30.52) rotate(-20)"/><circle class="cls-5" cx="86.15" cy="23.52" r="0.59" transform="translate(-2.85 30.88) rotate(-20)"/><circle class="cls-6" cx="86.74" cy="25.14" r="0.35" transform="translate(-3.37 31.18) rotate(-20)"/><circle class="cls-7" cx="87.19" cy="26.38" r="0.15" transform="translate(-3.77 31.41) rotate(-20)"/><circle class="cls-2" cx="80.1" cy="18.52" r="1.27" transform="translate(6.83 55.82) rotate(-40)"/><circle class="cls-3" cx="81.96" cy="20.73" r="1.02" transform="translate(5.85 57.53) rotate(-40)"/><circle class="cls-4" cx="83.54" cy="22.63" r="0.81" transform="translate(5 58.99) rotate(-40)"/><circle class="cls-5" cx="84.9" cy="24.24" r="0.59" transform="translate(4.28 60.24) rotate(-40)"/><circle class="cls-6" cx="86.01" cy="25.56" r="0.35" transform="translate(3.69 61.27) rotate(-40)"/><circle class="cls-7" cx="86.86" cy="26.58" r="0.15" transform="translate(3.24 62.05) rotate(-40)"/><circle class="cls-2" cx="77.51" cy="21.61" r="1.27" transform="matrix(0.5, -0.87, 0.87, 0.5, 20.04, 77.93)"/><circle class="cls-3" cx="80.01" cy="23.06" r="1.02" transform="matrix(0.5, -0.87, 0.87, 0.5, 20.04, 80.82)"/><circle class="cls-4" cx="82.15" cy="24.29" r="0.81" transform="matrix(0.5, -0.87, 0.87, 0.5, 20.04, 83.29)"/><circle class="cls-5" cx="83.97" cy="25.34" r="0.59" transform="translate(20.04 85.39) rotate(-60)"/><circle class="cls-6" cx="85.47" cy="26.21" r="0.35" transform="translate(20.04 87.13) rotate(-60)"/><circle class="cls-7" cx="86.61" cy="26.87" r="0.15" transform="translate(20.04 88.45) rotate(-60)"/><circle class="cls-2" cx="76.13" cy="25.4" r="1.27" transform="translate(37.89 95.97) rotate(-80)"/><circle class="cls-3" cx="78.97" cy="25.91" r="1.02" transform="translate(39.75 99.18) rotate(-80)"/><circle class="cls-4" cx="81.41" cy="26.33" r="0.81" transform="translate(41.34 101.93) rotate(-80)"/><circle class="cls-5" cx="83.48" cy="26.7" r="0.59" transform="translate(42.69 104.27) rotate(-80)"/><circle class="cls-6" cx="85.18" cy="27" r="0.35" transform="translate(43.8 106.2) rotate(-80)"/><circle class="cls-7" cx="86.48" cy="27.23" r="0.15" transform="translate(44.65 107.67) rotate(-80)"/><circle class="cls-2" cx="76.13" cy="29.44" r="1.27" transform="translate(-3.96 13.67) rotate(-10)"/><circle class="cls-3" cx="78.97" cy="28.94" r="1.02" transform="translate(-3.82 14.15) rotate(-10)"/><circle class="cls-4" cx="81.41" cy="28.51" r="0.81" transform="translate(-3.71 14.57) rotate(-10)"/><circle class="cls-5" cx="83.48" cy="28.14" r="0.59" transform="translate(-3.62 14.92) rotate(-10)"/><circle class="cls-6" cx="85.18" cy="27.84" r="0.35" transform="translate(-3.54 15.22) rotate(-10)"/><circle class="cls-7" cx="86.48" cy="27.61" r="0.15" transform="translate(-3.48 15.44) rotate(-10)"/><circle class="cls-2" cx="77.51" cy="33.23" r="1.27" transform="translate(-6.23 43.21) rotate(-30)"/><circle class="cls-3" cx="80.01" cy="31.79" r="1.02" transform="translate(-5.17 44.26) rotate(-30)"/><circle class="cls-4" cx="82.15" cy="30.55" r="0.81" transform="translate(-4.27 45.17) rotate(-30)"/><circle class="cls-5" cx="83.97" cy="29.5" r="0.59" transform="translate(-3.5 45.94) rotate(-30)"/><circle class="cls-6" cx="85.47" cy="28.63" r="0.35" transform="translate(-2.87 46.57) rotate(-30)"/><circle class="cls-7" cx="86.61" cy="27.97" r="0.15" transform="translate(-2.38 47.05) rotate(-30)"/><circle class="cls-2" cx="80.1" cy="36.32" r="1.27" transform="translate(0.8 74.34) rotate(-50)"/><circle class="cls-3" cx="81.96" cy="34.11" r="1.02" transform="translate(3.15 74.97) rotate(-50)"/><circle class="cls-4" cx="83.55" cy="32.21" r="0.81" transform="translate(5.17 75.51) rotate(-50)"/><circle class="cls-5" cx="84.9" cy="30.6" r="0.59" transform="translate(6.88 75.97) rotate(-50)"/><circle class="cls-6" cx="86.01" cy="29.28" r="0.35" transform="translate(8.3 76.35) rotate(-50)"/><circle class="cls-7" cx="86.86" cy="28.26" r="0.15" transform="translate(9.38 76.64) rotate(-50)"/><circle class="cls-2" cx="83.6" cy="38.33" r="1.27" transform="translate(18.99 103.78) rotate(-70)"/><circle class="cls-3" cx="84.58" cy="35.62" r="1.02" transform="translate(22.18 102.92) rotate(-70)"/><circle class="cls-4" cx="85.43" cy="33.3" r="0.81" transform="translate(24.92 102.19) rotate(-70)"/><circle class="cls-5" cx="86.15" cy="31.32" r="0.59" transform="matrix(0.34, -0.94, 0.94, 0.34, 27.25, 101.56)"/><circle class="cls-6" cx="86.74" cy="29.7" r="0.35" transform="translate(29.17 101.05) rotate(-70)"/><circle class="cls-7" cx="87.19" cy="28.46" r="0.15" transform="translate(30.63 100.66) rotate(-70)"/><circle class="cls-2" cx="87.57" cy="39.03" r="1.27"/><circle class="cls-3" cx="87.57" cy="36.15" r="1.02"/><circle class="cls-4" cx="87.57" cy="33.68" r="0.81"/><circle class="cls-5" cx="87.57" cy="31.57" r="0.59"/><circle class="cls-6" cx="87.57" cy="29.84" r="0.35"/><circle class="cls-7" cx="87.57" cy="28.52" r="0.15"/><circle class="cls-2" cx="91.54" cy="38.33" r="1.27" transform="translate(-7.59 33.62) rotate(-20)"/><circle class="cls-3" cx="90.55" cy="35.62" r="1.02" transform="translate(-6.72 33.12) rotate(-20)"/><circle class="cls-4" cx="89.71" cy="33.3" r="0.81" transform="translate(-5.98 32.69) rotate(-20)"/><circle class="cls-5" cx="88.99" cy="31.32" r="0.59" transform="translate(-5.35 32.32) rotate(-20)"/><circle class="cls-6" cx="88.39" cy="29.69" r="0.35" transform="translate(-4.83 32.02) rotate(-20)"/><circle class="cls-7" cx="87.94" cy="28.45" r="0.15" transform="translate(-4.43 31.79) rotate(-20)"/><circle class="cls-2" cx="95.03" cy="36.31" r="1.27" transform="translate(-1.11 69.58) rotate(-40)"/><circle class="cls-3" cx="93.18" cy="34.11" r="1.02" transform="translate(-0.12 67.87) rotate(-40)"/><circle class="cls-4" cx="91.59" cy="32.21" r="0.81" transform="translate(0.72 66.41) rotate(-40)"/><circle class="cls-5" cx="90.24" cy="30.6" r="0.59" transform="matrix(0.77, -0.64, 0.64, 0.77, 1.44, 65.16)"/><circle class="cls-6" cx="89.12" cy="29.27" r="0.35" transform="translate(2.03 64.14) rotate(-40)"/><circle class="cls-7" cx="88.27" cy="28.26" r="0.15" transform="translate(2.49 63.35) rotate(-40)"/><circle class="cls-2" cx="97.62" cy="33.22" r="1.27" transform="translate(20.04 101.15) rotate(-60)"/><circle class="cls-3" cx="95.12" cy="31.78" r="1.02" transform="translate(20.04 98.27) rotate(-60)"/><circle class="cls-4" cx="92.98" cy="30.55" r="0.81" transform="translate(20.04 95.8) rotate(-60)"/><circle class="cls-5" cx="91.16" cy="29.49" r="0.59" transform="translate(20.04 93.69) rotate(-60)"/><circle class="cls-6" cx="89.66" cy="28.63" r="0.35" transform="translate(20.04 91.96) rotate(-60)"/><circle class="cls-7" cx="88.52" cy="27.97" r="0.15" transform="translate(20.04 90.64) rotate(-60)"/><circle class="cls-2" cx="99" cy="29.43" r="1.27" transform="matrix(0.17, -0.98, 0.98, 0.17, 52.82, 121.82)"/><circle class="cls-3" cx="96.16" cy="28.93" r="1.02" transform="translate(50.97 118.61) rotate(-80)"/><circle class="cls-4" cx="93.72" cy="28.5" r="0.81" transform="translate(49.38 115.85) rotate(-80)"/><circle class="cls-5" cx="91.65" cy="28.14" r="0.59" transform="translate(48.03 113.51) rotate(-80)"/><circle class="cls-6" cx="89.95" cy="27.84" r="0.35" transform="translate(46.91 111.59) rotate(-80)"/><circle class="cls-7" cx="88.65" cy="27.61" r="0.15" transform="translate(46.07 110.12) rotate(-80)"/><circle class="cls-2" cx="99" cy="25.4" r="1.27" transform="translate(-2.91 17.58) rotate(-10)"/><circle class="cls-3" cx="96.16" cy="25.9" r="1.02" transform="translate(-3.04 17.09) rotate(-10)"/><circle class="cls-4" cx="93.72" cy="26.33" r="0.81" transform="translate(-3.15 16.68) rotate(-10)"/><circle class="cls-5" cx="91.65" cy="26.7" r="0.59" transform="translate(-3.24 16.32) rotate(-10)"/><circle class="cls-6" cx="89.95" cy="27" r="0.35" transform="translate(-3.32 16.03) rotate(-10)"/><circle class="cls-7" cx="88.65" cy="27.23" r="0.15" transform="translate(-3.38 15.81) rotate(-10)"/><circle class="cls-2" cx="97.62" cy="21.61" r="1.27" transform="matrix(0.87, -0.5, 0.5, 0.87, 2.27, 51.71)"/><circle class="cls-3" cx="95.12" cy="23.05" r="1.02" transform="matrix(0.87, -0.5, 0.5, 0.87, 1.22, 50.65)"/><circle class="cls-4" cx="92.98" cy="24.29" r="0.81" transform="matrix(0.87, -0.5, 0.5, 0.87, 0.31, 49.75)"/><circle class="cls-5" cx="91.16" cy="25.34" r="0.59" transform="translate(-0.46 48.98) rotate(-30)"/><circle class="cls-6" cx="89.66" cy="26.2" r="0.35" transform="translate(-1.09 48.34) rotate(-30)"/><circle class="cls-7" cx="88.52" cy="26.86" r="0.15" transform="translate(-1.57 47.86) rotate(-30)"/><circle class="cls-2" cx="95.03" cy="18.52" r="1.27" transform="translate(19.76 79.41) rotate(-50)"/><circle class="cls-3" cx="93.17" cy="20.73" r="1.02" transform="translate(17.4 78.78) rotate(-50)"/><circle class="cls-4" cx="91.58" cy="22.63" r="0.81" transform="translate(15.38 78.24) rotate(-50)"/><circle class="cls-5" cx="90.23" cy="24.24" r="0.59" transform="translate(13.67 77.78) rotate(-50)"/><circle class="cls-6" cx="89.12" cy="25.56" r="0.35" transform="translate(12.25 77.4) rotate(-50)"/><circle class="cls-7" cx="88.27" cy="26.57" r="0.15" transform="translate(11.17 77.11) rotate(-50)"/><circle class="cls-2" cx="91.53" cy="16.51" r="1.27" transform="translate(44.72 96.87) rotate(-70)"/><circle class="cls-3" cx="90.55" cy="19.22" r="1.02" transform="translate(41.52 97.73) rotate(-70)"/><circle class="cls-4" cx="89.7" cy="21.54" r="0.81" transform="translate(38.78 98.46) rotate(-70)"/><circle class="cls-5" cx="88.98" cy="23.51" r="0.59" transform="translate(36.45 99.09) rotate(-70)"/><circle class="cls-6" cx="88.39" cy="25.14" r="0.35" transform="translate(34.53 99.6) rotate(-70)"/><circle class="cls-7" cx="87.94" cy="26.38" r="0.15" transform="translate(33.07 100) rotate(-70)"/></svg>